<svg width="359" height="280" viewBox="0 0 359 280" fill="none" xmlns="http://www.w3.org/2000/svg">
<g opacity="0.2">
<mask id="mask0_497_71" style="mask-type:alpha" maskUnits="userSpaceOnUse" x="0" y="0" width="375" height="280">
<rect width="375" height="280" fill="url(#paint0_linear_497_71)"/>
</mask>
<g mask="url(#mask0_497_71)">
<path d="M418.008 248.88C421.651 252.523 421.651 258.43 418.008 262.073V262.073C414.365 265.716 408.459 265.716 404.816 262.073L361.053 218.31C357.41 214.667 357.41 208.761 361.053 205.118V205.118C364.696 201.474 370.602 201.474 374.245 205.118L418.008 248.88Z" fill="#F46F17"/>
<path d="M297.16 286.986C291.191 284.237 289.787 276.384 294.433 271.737V271.737C297.276 268.894 301.607 268.164 305.225 269.918L310.695 272.569C325.56 279.775 341.094 264.016 333.675 249.256L331.007 243.947C329.253 240.457 329.934 236.237 332.695 233.475V233.475C337.105 229.065 344.549 230.328 347.257 235.946L373.834 291.075C376.79 297.206 375.546 304.535 370.733 309.348V309.348C365.994 314.087 358.805 315.372 352.717 312.569L297.16 286.986Z" fill="#121212" fill-opacity="0.25"/>
<path d="M278.799 109.671C282.442 113.314 282.442 119.221 278.799 122.864V122.864C275.156 126.507 269.249 126.507 265.606 122.864L221.843 79.1011C218.2 75.4581 218.2 69.5515 221.843 65.9085V65.9085C225.486 62.2655 231.393 62.2655 235.036 65.9085L278.799 109.671Z" fill="#F46F17"/>
<path d="M122.151 266.318C125.794 269.961 125.794 275.867 122.151 279.51V279.51C118.508 283.153 112.601 283.153 108.958 279.51L65.1953 235.748C61.5523 232.105 61.5523 226.198 65.1953 222.555V222.555C68.8384 218.912 74.7449 218.912 78.3879 222.555L122.151 266.318Z" fill="#F46F17"/>
<path d="M157.95 147.777C151.982 145.028 150.577 137.175 155.224 132.528V132.528C158.067 129.685 162.398 128.955 166.016 130.709L171.485 133.36C186.351 140.566 201.885 124.807 194.466 110.047L191.798 104.738C190.044 101.248 190.724 97.0278 193.486 94.2664V94.2664C197.896 89.8564 205.339 91.1195 208.048 96.7375L234.625 151.866C237.58 157.997 236.337 165.326 231.524 170.139V170.139C226.785 174.878 219.595 176.163 213.507 173.36L157.95 147.777Z" fill="#121212" fill-opacity="0.25"/>
<path d="M292.468 91.2198C295.216 97.1883 303.07 98.5926 307.716 93.9462V93.9462C310.559 91.1034 311.289 86.772 309.536 83.1543L306.884 77.6848C299.678 62.8193 315.437 47.2853 330.198 54.704L335.507 57.3725C338.996 59.1262 343.217 58.4458 345.978 55.6844V55.6844C350.388 51.2743 349.125 43.8307 343.507 41.1223L288.379 14.5452C282.248 11.5896 274.918 12.8333 270.106 17.6459V17.6459C265.367 22.3851 264.081 29.5747 266.884 35.6625L292.468 91.2198Z" fill="#121212" fill-opacity="0.5"/>
<path d="M135.819 247.868C138.568 253.837 146.422 255.241 151.068 250.595V250.595C153.911 247.752 154.641 243.42 152.887 239.803L150.236 234.333C143.03 219.468 158.789 203.934 173.549 211.352L178.859 214.021C182.348 215.775 186.568 215.094 189.33 212.333V212.333C193.74 207.923 192.477 200.479 186.859 197.771L131.73 171.194C125.6 168.238 118.27 169.482 113.458 174.294V174.294C108.718 179.034 107.433 186.223 110.236 192.311L135.819 247.868Z" fill="#121212" fill-opacity="0.5"/>
<path d="M351.251 88.6978C347.608 85.0548 341.701 85.0548 338.058 88.6979V88.6979C334.415 92.3409 334.415 98.2474 338.058 101.89L381.821 145.653C385.464 149.296 391.371 149.296 395.014 145.653V145.653C398.657 142.01 398.657 136.104 395.014 132.461L351.251 88.6978Z" fill="#F46F17"/>
<path d="M194.603 245.346C190.96 241.703 185.053 241.703 181.41 245.346V245.346C177.767 248.989 177.767 254.896 181.41 258.539L225.173 302.302C228.816 305.945 234.723 305.945 238.366 302.302V302.302C242.009 298.659 242.009 292.752 238.366 289.109L194.603 245.346Z" fill="#F46F17"/>
<path d="M313.146 209.546C315.894 215.514 323.748 216.919 328.394 212.272V212.272C331.237 209.43 331.967 205.098 330.213 201.48L327.562 196.011C320.356 181.145 336.115 165.612 350.876 173.03L356.185 175.699C359.674 177.452 363.895 176.772 366.656 174.011V174.011C371.066 169.601 369.803 162.157 364.185 159.448L309.057 132.871C302.926 129.916 295.596 131.159 290.784 135.972V135.972C286.045 140.711 284.759 147.901 287.562 153.989L313.146 209.546Z" fill="#121212" fill-opacity="0.25"/>
<path d="M156.497 366.194C159.246 372.163 167.1 373.567 171.746 368.921V368.921C174.589 366.078 175.319 361.747 173.565 358.129L170.914 352.659C163.708 337.794 179.467 322.26 194.227 329.679L199.537 332.347C203.026 334.101 207.246 333.42 210.008 330.659V330.659C214.418 326.249 213.155 318.805 207.537 316.097L152.408 289.52C146.278 286.564 138.948 287.808 134.136 292.62V292.62C129.396 297.36 128.111 304.549 130.914 310.637L156.497 366.194Z" fill="#121212" fill-opacity="0.25"/>
<path d="M213.054 231.677C207.085 228.929 205.681 221.075 210.328 216.429V216.429C213.17 213.586 217.502 212.856 221.119 214.609L226.589 217.261C241.454 224.466 256.988 208.708 249.57 193.947L246.901 188.638C245.148 185.149 245.828 180.928 248.589 178.167V178.167C252.999 173.757 260.443 175.02 263.151 180.638L289.729 235.766C292.684 241.897 291.44 249.226 286.628 254.039V254.039C281.889 258.778 274.699 260.064 268.611 257.26L213.054 231.677Z" fill="#121212" fill-opacity="0.5"/>
<path d="M212.042 -50.5111C208.399 -54.1542 202.492 -54.1542 198.849 -50.5111V-50.5111C195.206 -46.8681 195.206 -40.9616 198.849 -37.3186L242.612 6.44422C246.255 10.0872 252.161 10.0872 255.804 6.4442V6.4442C259.447 2.80118 259.447 -3.10534 255.804 -6.74837L212.042 -50.5111Z" fill="#F46F17"/>
<path d="M55.3935 106.137C51.7505 102.494 45.844 102.494 42.201 106.137V106.137C38.5579 109.78 38.5579 115.687 42.201 119.33L85.9637 163.093C89.6068 166.736 95.5133 166.736 99.1563 163.093V163.093C102.799 159.45 102.799 153.543 99.1563 149.9L55.3935 106.137Z" fill="#F46F17"/>
<path d="M173.936 70.337C176.685 76.3055 184.539 77.7098 189.185 73.0634V73.0634C192.028 70.2206 192.758 65.8892 191.004 62.2715L188.353 56.802C181.147 41.9365 196.906 26.4025 211.666 33.8212L216.976 36.4896C220.465 38.2434 224.685 37.563 227.447 34.8016V34.8016C231.857 30.3915 230.594 22.9479 224.976 20.2395L169.847 -6.33763C163.716 -9.29325 156.387 -8.04954 151.575 -3.23694V-3.23694C146.835 1.50225 145.55 8.6919 148.353 14.7797L173.936 70.337Z" fill="#121212" fill-opacity="0.25"/>
<path d="M17.2882 226.985C20.0366 232.954 27.8903 234.358 32.5367 229.712V229.712C35.3795 226.869 36.1097 222.538 34.3561 218.92L31.7048 213.45C24.4989 198.585 40.2577 183.051 55.0181 190.47L60.3274 193.138C63.8167 194.892 68.0371 194.211 70.7985 191.45V191.45C75.2086 187.04 73.9455 179.596 68.3275 176.888L13.1991 150.311C7.06829 147.355 -0.261036 148.599 -5.07364 153.412V153.412C-9.81283 158.151 -11.0983 165.34 -8.29502 171.428L17.2882 226.985Z" fill="#121212" fill-opacity="0.25"/>
<path d="M73.8447 92.4682C67.8762 89.7198 66.4719 81.866 71.1183 77.2197V77.2197C73.9611 74.3769 78.2925 73.6467 81.9102 75.4003L87.3797 78.0516C102.245 85.2574 117.779 69.4987 110.361 54.7382L107.692 49.429C105.938 45.9397 106.619 41.7192 109.38 38.9578V38.9578C113.79 34.5478 121.234 35.8109 123.942 41.4289L150.519 96.5573C153.475 102.688 152.231 110.017 147.419 114.83V114.83C142.679 119.569 135.49 120.855 129.402 118.051L73.8447 92.4682Z" fill="#121212" fill-opacity="0.5"/>
</g>
</g>
<defs>
<linearGradient id="paint0_linear_497_71" x1="375" y1="-1.49677e-05" x2="-8.42214e-06" y2="280" gradientUnits="userSpaceOnUse">
<stop stop-color="#D9D9D9"/>
<stop offset="0.610726" stop-color="#D9D9D9" stop-opacity="0"/>
</linearGradient>
</defs>
</svg>

