<svg width="22" height="18" viewBox="0 0 22 18" fill="none" xmlns="http://www.w3.org/2000/svg">
<path d="M15.9153 14.5216C14.5008 15.5803 12.7784 16.1668 11 16.1953C5.2076 16.1953 1.89764 9.69532 1.89764 9.69532C2.92695 7.81187 4.35457 6.16632 6.08473 4.86908M9.26229 3.39033C9.83187 3.25942 10.415 3.19398 11 3.19533C16.7924 3.19533 20.1024 9.69532 20.1024 9.69532C19.6001 10.618 19.001 11.4867 18.315 12.2872M12.7543 11.4178C12.527 11.6573 12.253 11.8494 11.9484 11.9826C11.6439 12.1158 11.3152 12.1875 10.9819 12.1932C10.6486 12.199 10.3175 12.1388 10.0084 12.0162C9.69925 11.8936 9.41845 11.7112 9.18272 11.4797C8.94699 11.2482 8.76116 10.9725 8.6363 10.669C8.51145 10.3655 8.45013 10.0404 8.45601 9.71312C8.46189 9.38584 8.53485 9.06307 8.67053 8.76408C8.80621 8.46508 9.00184 8.19598 9.24574 7.97283" stroke="#363636" stroke-width="2" stroke-linecap="round" stroke-linejoin="round"/>
<path d="M2.9303 1.5L18.7839 16.5" stroke="#363636" stroke-width="2" stroke-linecap="round" stroke-linejoin="round"/>
</svg>
